Coordinates
version=1
nRows=17
nColumns=34
inDegrees=yes

Units are S.I. units (second, meters, Newtons, ...)
If the header above contains a line with 'inDegrees', this indicates whether rotational values are in degrees (yes) or radians (no).

endheader
time	pelvis_tilt	pelvis_list	pelvis_rotation	pelvis_tx	pelvis_ty	pelvis_tz	hip_flexion_r	hip_adduction_r	hip_rotation_r	knee_angle_r	ankle_angle_r	subtalar_angle_r	mtp_angle_r	hip_flexion_l	hip_adduction_l	hip_rotation_l	knee_angle_l	ankle_angle_l	subtalar_angle_l	mtp_angle_l	lumbar_extension	lumbar_bending	lumbar_rotation	arm_flex_r	arm_add_r	arm_rot_r	elbow_flex_r	pro_sup_r	arm_flex_l	arm_add_l	arm_rot_l	elbow_flex_l	pro_sup_l
      4.28333330	    -17.12697676	      3.07955800	     -1.36087159	      0.42320780	      0.93392071	     -0.08404351	     38.33428836	     -7.10380322	     -5.30266831	     34.51775295	     15.27967840	     -7.18378168	      0.00000000	     37.05214889	     -4.85771290	     -6.32546618	     33.74795833	     13.65090556	      2.25569220	      0.00000000	      2.41894383	     -1.97338334	      5.61091276	     91.01014956	      8.59155005	     55.03525837	    140.09175611	    107.80147961	    108.57409080	     13.18591139	     72.12078307	    117.73565276	     88.90881071
      4.30000000	    -16.31606577	      2.91184552	     -1.34375071	      0.43007374	      0.94202677	     -0.08276213	     35.18075364	     -6.52856663	     -5.39242510	     30.88861170	     13.89693560	     -7.73063236	      0.00000000	     34.06361686	     -4.64822491	     -6.11632014	     30.25094160	     12.24323002	      1.99838803	      0.00000000	      3.01896230	     -1.87130551	      5.84930570	     89.35843015	      8.58885423	     55.20213658	    138.57430923	    108.13769976	    106.95349902	     13.43498799	     71.35736046	    118.93690688	     89.37096995
      4.31666670	    -15.42722484	      2.75886498	     -1.42111938	      0.43691054	      0.95043813	     -0.08303310	     32.03062293	     -6.02293508	     -5.42315961	     27.54124553	     12.47800845	     -8.24992856	      0.00000000	     31.03078426	     -4.43898253	     -5.83580368	     26.93499990	     10.88241751	      1.68531907	      0.00000000	      3.34012376	     -1.76053866	      6.38541913	     88.25638162	      9.03635091	     55.25930081	    139.07330613	    108.45387153	    105.27649220	     13.88392802	     71.09315989	    119.09754278	     89.86180969
      4.33333330	    -14.50339124	      2.63773985	     -1.38109591	      0.44249217	      0.95906998	     -0.08303250	     29.00778095	     -5.63976137	     -5.50005879	     24.40804897	     11.31103958	     -8.67021799	      0.00000000	     28.01084722	     -4.21712106	     -5.63222319	     23.80811937	      9.35685805	      1.03631609	      0.00000000	      3.70214997	     -1.73788462	      6.93139207	     87.15782854	      9.25867305	     55.95471772	    139.04131392	    108.92798448	    103.39970613	     14.49124824	     70.35780677	    120.47437248	     90.36522513
      4.35000000	    -13.59733580	      2.62196838	     -1.51062860	      0.44840753	      0.96894660	     -0.08200087	     25.98991101	     -5.28920605	     -5.43579898	     21.15837093	     10.07187730	     -8.74409674	      0.00000000	     25.07405798	     -3.91622321	     -5.44593363	     20.58375761	      7.81012512	      0.65476538	      0.00000000	      4.36420186	     -1.69960681	      6.29131943	     84.79342052	      9.11552467	     57.04635960	    137.94821923	    109.23816255	    101.15656485	     13.61990179	     71.04889776	    120.70649109	     90.61747144
      4.36666670	    -12.43537199	      2.43290619	     -1.64664862	      0.45583295	      0.97174622	     -0.08216550	     22.78009124	     -4.83303180	     -5.36610163	     18.13676934	      8.79315599	     -8.83422686	      0.00000000	     21.85681184	     -3.74249439	     -5.07992339	     17.46621576	      6.52601467	     -0.06208524	      0.00000000	      4.40125784	     -1.25450892	      5.73071679	     82.91881886	      9.27810106	     57.66819852	    137.46162023	    109.56308687	     99.58028282	     13.32057710	     71.10494552	    120.65071250	     90.91547950
      4.38333330	    -11.65307499	      2.29565499	     -1.64802208	      0.46048534	      0.97348701	     -0.08363158	     20.18446115	     -4.55163587	     -5.25912956	     15.49994793	      8.01260545	     -8.84261790	      0.00000000	     19.31155859	     -3.48276771	     -4.61416202	     14.75468421	      5.80655937	     -0.48628060	      0.00000000	      4.62634239	     -0.96185791	      6.10444315	     81.79906912	      9.12674807	     57.45976466	    137.91282330	    109.69111441	     98.08952050	     13.56774040	     70.95895327	    120.02965966	     91.09537007
      4.40000000	    -10.78762213	      2.20465212	     -1.77111544	      0.46362452	      0.97314553	     -0.08421541	     17.79882459	     -4.31573296	     -4.92865375	     13.26520992	      7.59370433	     -8.89180719	      0.00000000	     16.96430544	     -3.21174909	     -4.08857159	     12.49384879	      5.56586182	     -1.04403791	      0.00000000	      4.40956471	     -0.76158130	      6.15266451	     81.05549950	      9.35167212	     57.12154452	    137.71126495	    109.79624898	     97.10473586	     13.75898558	     70.99816420	    118.75005339	     91.25682659
      4.41666670	    -10.27212658	      2.11548843	     -1.88455160	      0.46711673	      0.97139987	     -0.08332486	     16.13803388	     -4.08590530	     -4.58782514	     11.60533617	      7.62691874	     -8.96747255	      0.00000000	     15.29336008	     -3.07379343	     -3.77759509	     10.77145299	      5.78015754	     -1.41893309	      0.00000000	      4.79805578	     -0.57331728	      6.30583162	     79.81237398	      9.28060724	     56.84639374	    137.99651177	    109.79710156	     95.93708424	     13.52349440	     71.27266685	    117.70357575	     91.31028166
      4.43333330	     -9.35370536	      2.05085228	     -2.00309347	      0.47123193	      0.97281388	     -0.08288223	     14.07140968	     -3.91820485	     -4.06415452	     10.03850216	      7.41642922	     -9.08940707	      0.00000000	     13.16719234	     -2.93454449	     -3.11690384	      9.01477930	      5.72009178	     -1.83197057	      0.00000000	      4.70789655	     -0.56063300	      6.87891592	     78.54531397	      8.66757057	     56.75294152	    138.69560556	    109.78597966	     94.63005733	     13.78997978	     71.90770815	    116.42414465	     91.38012967
      4.45000000	     -8.76634997	      2.02238532	     -2.18436375	      0.47485387	      0.97629764	     -0.08211164	     12.52433408	     -3.75133610	     -3.57074912	      8.69861340	      7.52268270	     -9.07937139	      0.00000000	     11.58801902	     -2.86156096	     -2.68087699	      7.64737088	      5.99654766	     -2.02559219	      0.00000000	      5.15258957	     -0.55940215	      7.63346676	     76.73406389	      8.38377194	     57.79468610	    139.85572175	    109.83303048	     92.65774098	     14.10908545	     72.98654623	    116.76621395	     91.45256656
      4.46666670	     -8.04337457	      1.96012469	     -2.42695586	      0.47779580	      0.97754757	     -0.08216468	     10.89491365	     -3.56745104	     -3.15825159	      7.45737173	      7.28804831	     -9.05105914	      0.00000000	      9.89445209	     -2.83991274	     -2.41287565	      6.40037114	      5.89174444	     -2.21750771	      0.00000000	      5.28114717	     -0.58645944	      8.31115923	     75.18765987	      8.20421137	     59.03172543	    141.13817601	    109.92442111	     90.96368910	     14.20342697	     74.19342117	    116.38372216	     91.53512963
      4.48333330	     -7.40310957	      1.93353709	     -2.70932983	      0.47951670	      0.97795988	     -0.08226179	      9.60502708	     -3.48496110	     -2.70505244	      6.53582727	      7.12457270	     -9.03840489	      0.00000000	      8.43898112	     -2.77833954	     -2.12384059	      5.36384106	      5.88753206	     -2.42423533	      0.00000000	      5.30242413	     -0.67618347	      8.76001107	     73.87495551	      8.06101311	     60.17559697	    141.63415803	    110.04503954	     89.69330034	     14.50323877	     74.84077408	    116.38702762	     91.58782465
      4.50000000	     -6.73828243	      1.92009725	     -2.91882533	      0.48301636	      0.98287918	     -0.08184332	      8.35063880	     -3.43616520	     -2.19068502	      5.73291927	      6.85014739	     -8.87140344	      0.00000000	      7.06928595	     -2.69986946	     -1.81391613	      4.54215988	      5.62915682	     -2.44469792	      0.00000000	      5.32399322	     -0.74452370	      8.97126316	     72.20920045	      7.62259460	     61.60793936	    141.19874960	    110.20449908	     88.24317104	     14.39656280	     75.46700662	    116.94444027	     91.61360871
      4.51666670	     -6.21762782	      1.87433507	     -3.20646180	      0.48319638	      0.98218514	     -0.08192697	      7.47101511	     -3.36782523	     -1.71655915	      5.21636423	      6.78622877	     -8.82015822	      0.00000000	      5.99678141	     -2.64763064	     -1.65601420	      3.86047075	      5.59698026	     -2.46456927	      0.00000000	      5.26408465	     -0.68734715	      8.83357201	     71.20381343	      7.49866277	     62.74362064	    139.58184658	    110.32918971	     87.40951016	     13.92556417	     75.52749296	    117.52757586	     91.57765318
      4.53333330	     -6.13803275	      1.86534228	     -3.34197538	      0.48369400	      0.98121812	     -0.08179559	      7.36628818	     -3.35613531	     -1.66145800	      5.18377104	      6.81143024	     -8.81452964	      0.00000000	      5.84243241	     -2.64546036	     -1.56706756	      3.89649904	      5.61637386	     -2.43809190	      0.00000000	      5.48355271	     -0.72306324	      8.82816285	     71.20469259	      7.60588855	     62.76008921	    139.61007782	    110.33003756	     87.40910723	     13.98462368	     75.51416337	    117.57605963	     91.57724348
      4.55000000	     -6.11105599	      1.85269614	     -3.57794682	      0.48507652	      0.98012283	     -0.08180746	      7.10093496	     -3.28460783	     -1.14248114	      4.76655319	      6.94179244	     -8.70677281	      0.00000000	      5.38161079	     -2.67000025	     -1.22251936	      3.34733316	      5.88464271	     -2.40248639	      0.00000000	      5.80620439	     -0.84701771	      8.90519521	     71.25428282	      8.29739786	     62.68229568	    139.86744925	    110.32614291	     87.27290874	     14.10850443	     75.38491376	    117.63829744	     91.57481926
